<svg xmlns="http://www.w3.org/2000/svg" xmlns:xlink="http://www.w3.org/1999/xlink" width="1024" zoomAndPan="magnify" viewBox="0 0 768 767.999994" height="1024" preserveAspectRatio="xMidYMid meet" version="1.2"><defs><clipPath id="fed2b1b774"><path d="M 222.261719 148 L 545 148 L 545 620.703125 L 222.261719 620.703125 Z M 222.261719 148 "/></clipPath></defs><g id="8133f04b42"><g clip-rule="nonzero" clip-path="url(#fed2b1b774)"><path style=" stroke:none;fill-rule:nonzero;fill:#000000;fill-opacity:1;" d="M 224.953125 458.601562 C 222.261719 461.292969 222.261719 465.601562 224.953125 468.296875 C 227.644531 470.992188 231.949219 470.992188 234.640625 468.296875 L 346.753906 356.066406 L 346.753906 362.710938 C 346.753906 371.328125 349.984375 380.128906 363.257812 391.980469 C 369.714844 397.726562 372.945312 406.703125 374.558594 414.605469 L 375.632812 452.855469 L 318.230469 461.652344 C 316.796875 461.832031 315.898438 462.910156 315.898438 463.988281 L 315.898438 473.324219 C 315.898438 474.402344 316.976562 475.480469 318.230469 475.660156 L 376.53125 485.175781 L 380.121094 617.339844 C 380.121094 619.136719 381.734375 620.570312 383.527344 620.570312 L 384.425781 620.570312 C 386.21875 620.570312 387.652344 619.136719 387.832031 617.339844 L 391.421875 485.175781 L 450.257812 475.480469 C 451.695312 475.300781 452.589844 474.222656 452.589844 473.144531 L 452.589844 464.167969 C 452.589844 462.910156 451.515625 462.011719 450.257812 461.832031 L 392.316406 453.035156 L 393.394531 414.964844 C 395.007812 407.0625 398.238281 398.085938 404.695312 392.339844 C 417.96875 380.488281 421.199219 371.6875 421.199219 363.070312 L 421.199219 356.425781 L 532.773438 468.117188 C 535.464844 470.8125 539.769531 470.8125 542.460938 468.117188 C 545.152344 465.425781 545.152344 461.113281 542.460938 458.421875 L 421.019531 336.671875 L 421.019531 281.902344 L 542.820312 159.976562 C 545.511719 157.28125 545.511719 152.972656 542.820312 150.277344 C 540.128906 147.585938 535.824219 147.585938 533.132812 150.277344 L 421.019531 262.511719 L 421.019531 245.628906 C 421.019531 245.628906 412.765625 231.265625 409 211.511719 C 405.234375 191.9375 391.0625 184.578125 383.886719 184.578125 C 376.710938 184.578125 362.539062 191.9375 358.773438 211.511719 C 355.003906 231.265625 346.753906 245.628906 346.753906 245.628906 L 346.753906 262.511719 L 235.355469 150.636719 C 232.664062 147.945312 228.359375 147.945312 225.667969 150.636719 C 222.980469 153.332031 222.980469 157.640625 225.667969 160.335938 L 346.933594 281.722656 L 346.933594 336.492188 Z M 224.953125 458.601562 "/></g></g></svg>