<svg xmlns="http://www.w3.org/2000/svg" xmlns:xlink="http://www.w3.org/1999/xlink" width="1024" zoomAndPan="magnify" viewBox="0 0 768 767.999994" height="1024" preserveAspectRatio="xMidYMid meet" version="1.2"><defs><clipPath id="7782b79bb8"><path d="M 167 179 L 601 179 L 601 589 L 167 589 Z M 167 179 "/></clipPath><clipPath id="c6ce22c758"><path d="M -36.59375 384 L 383.957031 -36.554688 L 804.507812 384 L 383.957031 804.550781 Z M -36.59375 384 "/></clipPath><clipPath id="156a2f064a"><path d="M -36.59375 384 L 383.957031 -36.554688 L 804.507812 384 L 383.957031 804.550781 Z M -36.59375 384 "/></clipPath><clipPath id="37101e4208"><path d="M 448 318 L 478 318 L 478 344 L 448 344 Z M 448 318 "/></clipPath><clipPath id="af8a4e1f3a"><path d="M -36.59375 384 L 383.957031 -36.554688 L 804.507812 384 L 383.957031 804.550781 Z M -36.59375 384 "/></clipPath><clipPath id="344083d31e"><path d="M -36.59375 384 L 383.957031 -36.554688 L 804.507812 384 L 383.957031 804.550781 Z M -36.59375 384 "/></clipPath><clipPath id="ca5ad69195"><path d="M 510 337 L 539 337 L 539 363 L 510 363 Z M 510 337 "/></clipPath><clipPath id="58df84fa54"><path d="M -36.59375 384 L 383.957031 -36.554688 L 804.507812 384 L 383.957031 804.550781 Z M -36.59375 384 "/></clipPath><clipPath id="672976f573"><path d="M -36.59375 384 L 383.957031 -36.554688 L 804.507812 384 L 383.957031 804.550781 Z M -36.59375 384 "/></clipPath><clipPath id="34e9d6d19a"><path d="M 517 384 L 532 384 L 532 397 L 517 397 Z M 517 384 "/></clipPath><clipPath id="ca28326b9b"><path d="M -36.59375 384 L 383.957031 -36.554688 L 804.507812 384 L 383.957031 804.550781 Z M -36.59375 384 "/></clipPath><clipPath id="20bb84ec14"><path d="M -36.59375 384 L 383.957031 -36.554688 L 804.507812 384 L 383.957031 804.550781 Z M -36.59375 384 "/></clipPath><clipPath id="58e00817a2"><path d="M 455 380 L 471 380 L 471 395 L 455 395 Z M 455 380 "/></clipPath><clipPath id="a6a85fc3b7"><path d="M -36.59375 384 L 383.957031 -36.554688 L 804.507812 384 L 383.957031 804.550781 Z M -36.59375 384 "/></clipPath><clipPath id="a5c75c283c"><path d="M -36.59375 384 L 383.957031 -36.554688 L 804.507812 384 L 383.957031 804.550781 Z M -36.59375 384 "/></clipPath><clipPath id="77e4c544dd"><path d="M 236 384 L 251 384 L 251 397 L 236 397 Z M 236 384 "/></clipPath><clipPath id="fe95654f70"><path d="M -36.59375 384 L 383.957031 -36.554688 L 804.507812 384 L 383.957031 804.550781 Z M -36.59375 384 "/></clipPath><clipPath id="a72d010245"><path d="M -36.59375 384 L 383.957031 -36.554688 L 804.507812 384 L 383.957031 804.550781 Z M -36.59375 384 "/></clipPath><clipPath id="42c0008598"><path d="M 229 337 L 258 337 L 258 363 L 229 363 Z M 229 337 "/></clipPath><clipPath id="25d5395f98"><path d="M -36.59375 384 L 383.957031 -36.554688 L 804.507812 384 L 383.957031 804.550781 Z M -36.59375 384 "/></clipPath><clipPath id="d38a0bf7bf"><path d="M -36.59375 384 L 383.957031 -36.554688 L 804.507812 384 L 383.957031 804.550781 Z M -36.59375 384 "/></clipPath><clipPath id="aeec12239d"><path d="M 296 380 L 313 380 L 313 395 L 296 395 Z M 296 380 "/></clipPath><clipPath id="2303a0fc29"><path d="M -36.59375 384 L 383.957031 -36.554688 L 804.507812 384 L 383.957031 804.550781 Z M -36.59375 384 "/></clipPath><clipPath id="d99ed2afff"><path d="M -36.59375 384 L 383.957031 -36.554688 L 804.507812 384 L 383.957031 804.550781 Z M -36.59375 384 "/></clipPath><clipPath id="8e4db7e07a"><path d="M 290 318 L 319 318 L 319 344 L 290 344 Z M 290 318 "/></clipPath><clipPath id="29317b77d2"><path d="M -36.59375 384 L 383.957031 -36.554688 L 804.507812 384 L 383.957031 804.550781 Z M -36.59375 384 "/></clipPath><clipPath id="3352983f58"><path d="M -36.59375 384 L 383.957031 -36.554688 L 804.507812 384 L 383.957031 804.550781 Z M -36.59375 384 "/></clipPath></defs><g id="bc19b6f423"><g clip-rule="nonzero" clip-path="url(#7782b79bb8)"><g clip-rule="nonzero" clip-path="url(#c6ce22c758)"><g clip-rule="nonzero" clip-path="url(#156a2f064a)"><path style=" stroke:none;fill-rule:nonzero;fill:#c1ff72;fill-opacity:1;" d="M 383.953125 179.660156 C 383.953125 179.660156 383.921875 179.664062 383.921875 179.664062 C 367.410156 183.671875 351.890625 190.230469 346.007812 250.933594 C 344.144531 270.125 343.296875 294.484375 343.246094 321.101562 C 343.246094 321.101562 343.238281 321.101562 343.238281 321.101562 C 343.238281 321.101562 257.769531 343.636719 257.769531 343.636719 C 257.769531 343.636719 167.738281 367.378906 167.738281 367.378906 C 167.871094 376.179688 168 384.980469 168.132812 393.785156 C 226.941406 391.945312 285.746094 390.109375 344.554688 388.269531 C 344.554688 388.269531 344.566406 388.269531 344.566406 388.269531 C 346.441406 436.808594 350.15625 485.082031 354.640625 518.492188 C 355.242188 522.984375 355.855469 527.195312 356.484375 531.140625 C 356.484375 531.140625 356.472656 531.140625 356.472656 531.140625 C 356.472656 531.140625 316.039062 542.761719 316.039062 542.761719 C 316.039062 542.761719 267.582031 556.683594 267.582031 556.683594 C 267.652344 561.84375 267.722656 567.007812 267.792969 572.167969 C 300.191406 571.066406 332.59375 569.960938 364.996094 568.859375 C 364.996094 568.859375 365.003906 568.859375 365.003906 568.859375 C 371.265625 581.226562 374.574219 584.339844 383.796875 588.335938 C 393.519531 584.300781 396.023438 582.183594 402.90625 568.859375 C 402.90625 568.859375 402.917969 568.859375 402.917969 568.859375 C 435.320312 569.960938 467.71875 571.066406 500.121094 572.167969 C 500.191406 567.007812 500.261719 561.84375 500.332031 556.683594 C 500.332031 556.683594 451.875 542.761719 451.875 542.761719 C 451.875 542.761719 411.4375 531.140625 411.4375 531.140625 C 411.4375 531.140625 411.429688 531.140625 411.429688 531.140625 C 412.054688 527.195312 412.667969 522.984375 413.273438 518.492188 C 417.757812 485.082031 421.46875 436.808594 423.347656 388.269531 C 423.347656 388.269531 423.355469 388.269531 423.355469 388.269531 C 482.164062 390.109375 540.972656 391.945312 599.78125 393.785156 C 599.910156 384.980469 600.042969 376.179688 600.171875 367.378906 C 600.171875 367.378906 510.144531 343.636719 510.144531 343.636719 C 510.144531 343.636719 424.675781 321.101562 424.675781 321.101562 C 424.675781 321.101562 424.667969 321.101562 424.667969 321.101562 C 424.617188 294.484375 423.765625 270.125 421.90625 250.933594 C 416.023438 190.261719 400.519531 183.679688 384.015625 179.671875 C 384.015625 179.671875 384.011719 179.671875 384.011719 179.671875 C 383.996094 179.664062 383.976562 179.660156 383.957031 179.660156 C 383.957031 179.660156 383.953125 179.660156 383.953125 179.660156 "/></g></g></g><g clip-rule="nonzero" clip-path="url(#37101e4208)"><g clip-rule="nonzero" clip-path="url(#af8a4e1f3a)"><g clip-rule="nonzero" clip-path="url(#344083d31e)"><path style=" stroke:none;fill-rule:nonzero;fill:#c1ff72;fill-opacity:1;" d="M 477.277344 329.867188 C 477.277344 323.492188 475.164062 318.324219 472.5625 318.324219 C 472.5625 318.324219 453.582031 318.324219 453.582031 318.324219 C 450.976562 318.324219 448.863281 323.492188 448.863281 329.867188 C 448.863281 329.867188 448.863281 331.496094 448.863281 331.496094 C 448.863281 337.871094 450.976562 343.039062 453.582031 343.039062 C 453.582031 343.039062 472.5625 343.039062 472.5625 343.039062 C 475.164062 343.039062 477.277344 337.871094 477.277344 331.496094 C 477.277344 331.496094 477.277344 329.867188 477.277344 329.867188 "/></g></g></g><g clip-rule="nonzero" clip-path="url(#ca5ad69195)"><g clip-rule="nonzero" clip-path="url(#58df84fa54)"><g clip-rule="nonzero" clip-path="url(#672976f573)"><path style=" stroke:none;fill-rule:nonzero;fill:#c1ff72;fill-opacity:1;" d="M 538.621094 349.367188 C 538.621094 342.988281 536.507812 337.820312 533.902344 337.820312 C 533.902344 337.820312 514.921875 337.820312 514.921875 337.820312 C 512.316406 337.820312 510.207031 342.988281 510.207031 349.367188 C 510.207031 349.367188 510.207031 350.992188 510.207031 350.992188 C 510.207031 357.367188 512.316406 362.535156 514.921875 362.535156 C 514.921875 362.535156 533.902344 362.535156 533.902344 362.535156 C 536.507812 362.535156 538.621094 357.367188 538.621094 350.992188 C 538.621094 350.992188 538.621094 349.367188 538.621094 349.367188 "/></g></g></g><g clip-rule="nonzero" clip-path="url(#34e9d6d19a)"><g clip-rule="nonzero" clip-path="url(#ca28326b9b)"><g clip-rule="nonzero" clip-path="url(#20bb84ec14)"><path style=" stroke:none;fill-rule:nonzero;fill:#c1ff72;fill-opacity:1;" d="M 531.648438 390.863281 C 531.648438 394.113281 530.574219 396.746094 529.246094 396.746094 C 529.246094 396.746094 519.578125 396.746094 519.578125 396.746094 C 518.253906 396.746094 517.175781 394.113281 517.175781 390.863281 C 517.175781 390.863281 517.175781 390.035156 517.175781 390.035156 C 517.175781 386.789062 518.253906 384.15625 519.578125 384.15625 C 519.578125 384.15625 529.246094 384.15625 529.246094 384.15625 C 530.574219 384.15625 531.648438 386.789062 531.648438 390.035156 C 531.648438 390.035156 531.648438 390.863281 531.648438 390.863281 "/></g></g></g><g clip-rule="nonzero" clip-path="url(#58e00817a2)"><g clip-rule="nonzero" clip-path="url(#a6a85fc3b7)"><g clip-rule="nonzero" clip-path="url(#a5c75c283c)"><path style=" stroke:none;fill-rule:nonzero;fill:#c1ff72;fill-opacity:1;" d="M 470.992188 387.609375 C 470.992188 391.164062 469.816406 394.046875 468.363281 394.046875 C 468.363281 394.046875 457.777344 394.046875 457.777344 394.046875 C 456.324219 394.046875 455.148438 391.164062 455.148438 387.609375 C 455.148438 387.609375 455.148438 386.703125 455.148438 386.703125 C 455.148438 383.148438 456.324219 380.265625 457.777344 380.265625 C 457.777344 380.265625 468.363281 380.265625 468.363281 380.265625 C 469.816406 380.265625 470.992188 383.148438 470.992188 386.703125 C 470.992188 386.703125 470.992188 387.609375 470.992188 387.609375 "/></g></g></g><g clip-rule="nonzero" clip-path="url(#77e4c544dd)"><g clip-rule="nonzero" clip-path="url(#fe95654f70)"><g clip-rule="nonzero" clip-path="url(#a72d010245)"><path style=" stroke:none;fill-rule:nonzero;fill:#c1ff72;fill-opacity:1;" d="M 236.265625 390.863281 C 236.265625 394.113281 237.339844 396.746094 238.667969 396.746094 C 238.667969 396.746094 248.332031 396.746094 248.332031 396.746094 C 249.660156 396.746094 250.734375 394.113281 250.734375 390.863281 C 250.734375 390.863281 250.734375 390.035156 250.734375 390.035156 C 250.734375 386.789062 249.660156 384.15625 248.332031 384.15625 C 248.332031 384.15625 238.667969 384.15625 238.667969 384.15625 C 237.339844 384.15625 236.265625 386.789062 236.265625 390.035156 C 236.265625 390.035156 236.265625 390.863281 236.265625 390.863281 "/></g></g></g><g clip-rule="nonzero" clip-path="url(#42c0008598)"><g clip-rule="nonzero" clip-path="url(#25d5395f98)"><g clip-rule="nonzero" clip-path="url(#d38a0bf7bf)"><path style=" stroke:none;fill-rule:nonzero;fill:#c1ff72;fill-opacity:1;" d="M 229.292969 349.367188 C 229.292969 342.992188 231.40625 337.820312 234.011719 337.820312 C 234.011719 337.820312 252.992188 337.820312 252.992188 337.820312 C 255.59375 337.820312 257.707031 342.992188 257.707031 349.367188 C 257.707031 349.367188 257.707031 350.992188 257.707031 350.992188 C 257.707031 357.367188 255.59375 362.535156 252.992188 362.535156 C 252.992188 362.535156 234.011719 362.535156 234.011719 362.535156 C 231.40625 362.535156 229.292969 357.367188 229.292969 350.992188 C 229.292969 350.992188 229.292969 349.367188 229.292969 349.367188 "/></g></g></g><g clip-rule="nonzero" clip-path="url(#aeec12239d)"><g clip-rule="nonzero" clip-path="url(#2303a0fc29)"><g clip-rule="nonzero" clip-path="url(#d99ed2afff)"><path style=" stroke:none;fill-rule:nonzero;fill:#c1ff72;fill-opacity:1;" d="M 296.578125 387.609375 C 296.578125 391.164062 297.753906 394.046875 299.207031 394.046875 C 299.207031 394.046875 309.792969 394.046875 309.792969 394.046875 C 311.242188 394.046875 312.421875 391.164062 312.421875 387.609375 C 312.421875 387.609375 312.421875 386.703125 312.421875 386.703125 C 312.421875 383.148438 311.242188 380.265625 309.792969 380.265625 C 309.792969 380.265625 299.207031 380.265625 299.207031 380.265625 C 297.753906 380.265625 296.578125 383.148438 296.578125 386.703125 C 296.578125 386.703125 296.578125 387.609375 296.578125 387.609375 "/></g></g></g><g clip-rule="nonzero" clip-path="url(#8e4db7e07a)"><g clip-rule="nonzero" clip-path="url(#29317b77d2)"><g clip-rule="nonzero" clip-path="url(#3352983f58)"><path style=" stroke:none;fill-rule:nonzero;fill:#c1ff72;fill-opacity:1;" d="M 290.292969 329.867188 C 290.292969 323.492188 292.402344 318.324219 295.007812 318.324219 C 295.007812 318.324219 313.988281 318.324219 313.988281 318.324219 C 316.59375 318.324219 318.707031 323.492188 318.707031 329.867188 C 318.707031 329.867188 318.707031 331.492188 318.707031 331.492188 C 318.707031 337.871094 316.59375 343.039062 313.988281 343.039062 C 313.988281 343.039062 295.007812 343.039062 295.007812 343.039062 C 292.402344 343.039062 290.292969 337.871094 290.292969 331.492188 C 290.292969 331.492188 290.292969 329.867188 290.292969 329.867188 "/></g></g></g></g></svg>