<svg xmlns="http://www.w3.org/2000/svg" xmlns:xlink="http://www.w3.org/1999/xlink" width="1024" zoomAndPan="magnify" viewBox="0 0 768 767.999994" height="1024" preserveAspectRatio="xMidYMid meet" version="1.2"><defs><clipPath id="fc3ad0f74e"><path d="M 75 37 L 694 37 L 694 724 L 75 724 Z M 75 37 "/></clipPath><clipPath id="8f5dbc3d97"><path d="M -25.890625 436.136719 L 384.054688 26.191406 L 794 436.136719 L 384.054688 846.082031 Z M -25.890625 436.136719 "/></clipPath><clipPath id="a2554c852e"><path d="M -25.890625 436.136719 L 384.054688 26.191406 L 794 436.136719 L 384.054688 846.082031 Z M -25.890625 436.136719 "/></clipPath><clipPath id="3f8a2e418d"><path d="M -25.550781 435.792969 L 383.625 26.621094 L 793.476562 436.472656 L 384.304688 845.648438 Z M -25.550781 435.792969 "/></clipPath></defs><g id="0555347867"><g clip-rule="nonzero" clip-path="url(#fc3ad0f74e)"><g clip-rule="nonzero" clip-path="url(#8f5dbc3d97)"><g clip-rule="nonzero" clip-path="url(#a2554c852e)"><g clip-rule="nonzero" clip-path="url(#3f8a2e418d)"><path style=" stroke:none;fill-rule:nonzero;fill:#5e17eb;fill-opacity:1;" d="M 433.957031 156.679688 C 433.949219 1.425781 334.648438 -5.566406 334.648438 156.679688 C 334.648438 189.367188 334.757812 229.042969 335.296875 271.871094 L 251.453125 338.941406 L 251.460938 313.402344 C 251.460938 299.832031 240.460938 288.832031 226.890625 288.832031 L 219.578125 288.828125 C 206.011719 288.832031 195.015625 299.832031 195.007812 313.398438 L 195.015625 384.101562 L 89.316406 468.65625 C 88.628906 469.210938 88.15625 469.964844 87.949219 470.808594 L 75.265625 524.730469 C 74.511719 527.960938 77.875 530.609375 80.828125 529.109375 L 338.324219 398.4375 C 341.554688 485.261719 347.59375 570.4375 358.851562 627.289062 L 272.882812 682.328125 L 260.5 719.058594 C 259.605469 721.722656 262.011719 724.316406 264.726562 723.628906 L 384.304688 693.519531 L 503.878906 723.628906 C 506.59375 724.316406 509 721.722656 508.105469 719.058594 L 496.128906 683.507812 C 495.867188 682.742188 495.363281 682.089844 494.675781 681.65625 L 408.679688 626.601562 C 419.632812 568.9375 425.871094 482.546875 429.410156 397.578125 L 687.769531 529.089844 C 690.730469 530.59375 694.09375 527.949219 693.34375 524.714844 L 680.652344 470.816406 C 680.449219 469.964844 679.976562 469.210938 679.289062 468.65625 L 573.589844 384.101562 L 573.597656 317.0625 C 573.589844 301.472656 560.953125 288.832031 545.367188 288.832031 C 529.785156 288.832031 517.144531 301.472656 517.144531 317.058594 L 517.144531 338.949219 L 432.988281 271.617188 C 433.804688 224.007812 433.949219 183.160156 433.957031 156.679688 "/></g></g></g></g></g></svg>