<svg xmlns="http://www.w3.org/2000/svg" xmlns:xlink="http://www.w3.org/1999/xlink" width="1024" zoomAndPan="magnify" viewBox="0 0 768 767.999994" height="1024" preserveAspectRatio="xMidYMid meet" version="1.2"><defs><clipPath id="696c3409c9"><path d="M 89 35 L 684 35 L 684 735 L 89 735 Z M 89 35 "/></clipPath><clipPath id="7765a5698e"><path d="M 14.289062 594.167969 L 357.855469 0.109375 L 834.398438 275.714844 L 490.832031 869.769531 Z M 14.289062 594.167969 "/></clipPath><clipPath id="8d153f40cc"><path d="M 14.289062 594.167969 L 357.855469 0.109375 L 834.398438 275.714844 L 490.832031 869.769531 Z M 14.289062 594.167969 "/></clipPath></defs><g id="f4e4670300"><g clip-rule="nonzero" clip-path="url(#696c3409c9)"><g clip-rule="nonzero" clip-path="url(#7765a5698e)"><g clip-rule="nonzero" clip-path="url(#8d153f40cc)"><path style=" stroke:none;fill-rule:evenodd;fill:#ffde59;fill-opacity:1;" d="M 385.777344 35.382812 C 410.828125 35.402344 440.894531 48.398438 440.746094 232.976562 C 440.753906 238.210938 440.722656 243.558594 440.679688 248.96875 L 683.539062 474.433594 L 683.5 535.546875 L 435.496094 398.863281 C 429.972656 494.761719 420.429688 533.472656 408.644531 591.328125 L 515.382812 680.484375 L 515.351562 734.738281 L 386.230469 675.8125 L 257.019531 734.546875 L 257.066406 680.304688 L 362.382812 592.5625 C 350.601562 535.019531 341.046875 496.0625 335.613281 399.765625 L 89.144531 535.117188 L 89.1875 473.996094 L 330.617188 250.558594 C 330.546875 244.542969 330.558594 238.667969 330.546875 232.878906 C 330.691406 48.3125 360.777344 35.367188 385.777344 35.382812 Z M 385.777344 35.382812 "/></g></g></g></g></svg>